<?xml version="1.0" encoding="UTF-8" standalone="no"?>
<svg xmlns="http://www.w3.org/2000/svg"
   xmlns:dc="http://purl.org/dc/elements/1.1/"
   xmlns:cc="http://creativecommons.org/ns#"
   xmlns:rdf="http://www.w3.org/1999/02/22-rdf-syntax-ns#"
   width="120" height="42" viewBox="0 0 120 42">
  <metadata><rdf:RDF><cc:Work rdf:about="">
    <dc:format>image/svg+xml</dc:format>
    <dc:type rdf:resource="http://purl.org/dc/dcmitype/StillImage"/>
  </cc:Work></rdf:RDF></metadata>
  <path style="fill:#adadad"
     d="M 3.4073359,0.44978803 L 116.76243,0.65162689 C 118.34626,0.65162689 119.76124,0.4167875 119.76124,3.8112616 L 119.62246,41.141693 L 0.54730437,41.141693 L 0.54730437,3.6734663 C 0.54730437,1.9985475 0.70937014,0.44978803 3.4073359,0.44978803 z"/>
  <ellipse cx="20.818965" cy="20.146553" rx="16.034482" ry="16.293102" style="fill:#ffffff;fill-opacity:1"/>
  <path d="M 117.7533,2.968925e-06 L 2.2466596,2.968925e-06 C 1.0083193,2.968925e-06 -2.0408688e-05,1.0072794 -2.0408688e-05,2.2459969 L -2.0408688e-05,41.492973 C -2.0408688e-05,41.772936 0.22707838,42.000005 0.5075432,42.000005 L 119.49241,42.000005 C 119.77289,42.000005 119.99998,41.772926 119.99998,41.492973 L 119.99998,2.2459969 C 119.99998,1.0072894 118.99164,2.968925e-06 117.7533,2.968925e-06 z M 2.2466596,1.0140763 L 117.7533,1.0140763 C 118.43263,1.0140763 118.98485,1.5667185 118.98485,2.2460068 C 118.98485,2.2460068 118.98485,18.041259 118.98485,29.465814 L 36.427283,29.465814 C 33.4013,34.936947 27.572537,38.650674 20.881987,38.650674 C 14.187552,38.650674 8.3597631,34.939848 5.3347539,29.465814 L 1.0151068,29.465814 C 1.0151068,18.041259 1.0151068,2.2460068 1.0151068,2.2460068 C 1.0151068,1.5667185 1.567321,1.0140763 2.2466596,1.0140763 z"/>
  <path style="fill:#ffffff;fill-opacity:1;stroke:none"
     d="M 38.227539,39.413795 L 38.227539,32.255592 L 40.546875,32.255592 C 41.425777,32.2556 41.998693,32.291407 42.265625,32.363014 C 42.675776,32.470443 43.0192,32.704004 43.295898,33.063698 C 43.572585,33.423404 43.710931,33.888085 43.710938,34.457741 C 43.710931,34.897198 43.631179,35.266664 43.47168,35.566139 C 43.312169,35.865622 43.109532,36.100811 42.86377,36.271706 C 42.617996,36.442607 42.368159,36.555725 42.114258,36.611061 C 41.769201,36.679423 41.269527,36.713603 40.615234,36.7136 L 39.672852,36.7136 L 39.672852,39.413795 L 38.227539,39.413795 z M 39.672852,33.46653 L 39.672852,35.49778 L 40.463867,35.49778 C 41.033525,35.497784 41.414384,35.460349 41.606445,35.385475 C 41.798498,35.310609 41.949052,35.193422 42.058105,35.033913 C 42.16715,34.874412 42.221675,34.688865 42.22168,34.477272 C 42.221675,34.216861 42.145178,34.002017 41.992188,33.832741 C 41.839188,33.663476 41.645504,33.557682 41.411133,33.515358 C 41.238603,33.482812 40.891924,33.466536 40.371094,33.46653 L 39.672852,33.46653 z M 44.897461,32.255592 L 46.342773,32.255592 L 46.342773,36.132545 C 46.342771,36.747783 46.360675,37.146545 46.396484,37.328835 C 46.458331,37.621805 46.605629,37.856994 46.838379,38.034401 C 47.071123,38.211811 47.38932,38.300515 47.792969,38.300514 C 48.203121,38.300515 48.512365,38.216694 48.720703,38.049049 C 48.929032,37.881408 49.054357,37.675516 49.09668,37.431374 C 49.138992,37.187235 49.160151,36.781962 49.160156,36.215553 L 49.160156,32.255592 L 50.605469,32.255592 L 50.605469,36.015358 C 50.605462,36.874736 50.5664,37.481831 50.488281,37.836647 C 50.41015,38.191466 50.266107,38.490945 50.056152,38.735085 C 49.846186,38.979226 49.565424,39.173724 49.213867,39.318581 C 48.8623,39.463437 48.403316,39.535866 47.836914,39.535866 C 47.153317,39.535866 46.634926,39.456927 46.281738,39.299049 C 45.928546,39.141172 45.649413,38.936094 45.444336,38.683815 C 45.239257,38.431537 45.104166,38.167052 45.039062,37.890358 C 44.944661,37.480204 44.89746,36.874736 44.897461,36.073952 L 44.897461,32.255592 z M 52.138672,32.255592 L 55,32.255592 C 55.566402,32.2556 55.988765,32.2792 56.26709,32.326393 C 56.545405,32.373601 56.794428,32.472071 57.01416,32.621803 C 57.233881,32.77155 57.416986,32.970931 57.563477,33.219948 C 57.709955,33.468977 57.783197,33.748111 57.783203,34.05735 C 57.783197,34.392642 57.692865,34.700259 57.512207,34.980202 C 57.331537,35.260154 57.086583,35.470115 56.777344,35.610085 C 57.213536,35.737041 57.548822,35.953512 57.783203,36.259499 C 58.017572,36.565491 58.134759,36.925191 58.134766,37.3386 C 58.134759,37.664123 58.059075,37.980691 57.907715,38.288307 C 57.756341,38.595925 57.549636,38.841693 57.287598,39.025612 C 57.025548,39.209531 56.702469,39.32265 56.318359,39.364967 C 56.077469,39.391009 55.496415,39.407285 54.575195,39.413795 L 52.138672,39.413795 L 52.138672,32.255592 z M 53.583984,33.446999 L 53.583984,35.102272 L 54.53125,35.102272 C 55.094397,35.102276 55.444332,35.094138 55.581055,35.077858 C 55.828446,35.048565 56.022945,34.963116 56.164551,34.82151 C 56.306147,34.679913 56.376948,34.493553 56.376953,34.262428 C 56.376948,34.041079 56.315913,33.861229 56.193848,33.722878 C 56.071773,33.584537 55.890295,33.500715 55.649414,33.471413 C 55.506181,33.455143 55.094397,33.447005 54.414062,33.446999 L 53.583984,33.446999 z M 53.583984,36.293678 L 53.583984,38.207741 L 54.921875,38.207741 C 55.442704,38.207742 55.773108,38.193094 55.913086,38.163795 C 56.127925,38.124734 56.302892,38.02952 56.437988,37.878151 C 56.573074,37.726785 56.64062,37.524149 56.640625,37.270241 C 56.64062,37.055399 56.588536,36.873108 56.484375,36.723366 C 56.380203,36.573629 56.22965,36.46458 56.032715,36.396217 C 55.83577,36.327861 55.408525,36.293681 54.750977,36.293678 L 53.583984,36.293678 z M 59.399414,39.413795 L 59.399414,32.314186 L 60.844727,32.314186 L 60.844727,38.207741 L 64.438477,38.207741 L 64.438477,39.413795 L 59.399414,39.413795 z M 65.429688,39.413795 L 65.429688,32.255592 L 66.875,32.255592 L 66.875,39.413795 L 65.429688,39.413795 z M 72.827148,36.78196 L 74.228516,37.226295 C 74.013665,38.007547 73.656407,38.587787 73.156738,38.967018 C 72.657059,39.34625 72.023107,39.535866 71.254883,39.535866 C 70.304359,39.535866 69.52311,39.211159 68.911133,38.561745 C 68.299153,37.912332 67.993164,37.024475 67.993164,35.89817 C 67.993164,34.706769 68.30078,33.781477 68.916016,33.122292 C 69.531248,32.463119 70.340166,32.133529 71.342773,32.133522 C 72.21842,32.133529 72.929682,32.392318 73.476562,32.909889 C 73.802077,33.215885 74.046217,33.655338 74.208984,34.228249 L 72.77832,34.570045 C 72.69368,34.198957 72.517085,33.905988 72.248535,33.691139 C 71.979976,33.476301 71.653642,33.36888 71.269531,33.368874 C 70.738929,33.36888 70.308428,33.559309 69.978027,33.940163 C 69.647622,34.321027 69.48242,34.937888 69.482422,35.790749 C 69.48242,36.695699 69.64518,37.34023 69.970703,37.724342 C 70.296221,38.108458 70.719398,38.300515 71.240234,38.300514 C 71.624345,38.300515 71.954748,38.178445 72.231445,37.934303 C 72.508133,37.690164 72.706701,37.30605 72.827148,36.78196 L 72.827148,36.78196 z M 78.242188,32.255592 L 80.883789,32.255592 C 81.479488,32.2556 81.933589,32.301172 82.246094,32.392311 C 82.66601,32.516016 83.025711,32.735742 83.325195,33.051491 C 83.624668,33.367252 83.852533,33.753808 84.008789,34.211159 C 84.165032,34.66852 84.243157,35.232485 84.243164,35.903053 C 84.243157,36.492249 84.169915,37.000061 84.023438,37.426491 C 83.844395,37.947326 83.588861,38.368875 83.256836,38.691139 C 83.006179,38.93528 82.667638,39.12571 82.241211,39.262428 C 81.922196,39.36334 81.495764,39.413795 80.961914,39.413795 L 78.242188,39.413795 L 78.242188,32.255592 z M 79.6875,33.46653 L 79.6875,38.207741 L 80.766602,38.207741 C 81.170244,38.207742 81.461585,38.184956 81.640625,38.139381 C 81.874996,38.080789 82.069494,37.981505 82.224121,37.84153 C 82.378739,37.701558 82.504878,37.471252 82.602539,37.150612 C 82.70019,36.829976 82.749018,36.392965 82.749023,35.839577 C 82.749018,35.286195 82.70019,34.861391 82.602539,34.565163 C 82.504878,34.268944 82.368159,34.037824 82.192383,33.871803 C 82.016597,33.705793 81.793616,33.593489 81.523438,33.534889 C 81.321611,33.489322 80.926103,33.466536 80.336914,33.46653 L 79.6875,33.46653 z M 85.180664,35.878639 C 85.180664,35.149477 85.289713,34.537498 85.507812,34.042702 C 85.670572,33.678124 85.89274,33.350976 86.174316,33.061256 C 86.45589,32.77155 86.764321,32.556706 87.099609,32.416725 C 87.54557,32.22793 88.059893,32.133529 88.642578,32.133522 C 89.697261,32.133529 90.541173,32.460677 91.174316,33.114967 C 91.807447,33.76927 92.124016,34.6791 92.124023,35.84446 C 92.124016,37.000061 91.809889,37.904194 91.181641,38.556862 C 90.55338,39.209531 89.713537,39.535866 88.662109,39.535866 C 87.597653,39.535866 86.7513,39.211159 86.123047,38.561745 C 85.494791,37.912332 85.180664,37.017965 85.180664,35.878639 L 85.180664,35.878639 z M 86.669922,35.829811 C 86.66992,36.640361 86.857094,37.254781 87.231445,37.673073 C 87.605791,38.091368 88.081051,38.300515 88.657227,38.300514 C 89.233394,38.300515 89.706212,38.092996 90.075684,37.677956 C 90.445144,37.262919 90.629877,36.640361 90.629883,35.81028 C 90.629877,34.989972 90.450027,34.377993 90.090332,33.974342 C 89.730627,33.570702 89.252925,33.36888 88.657227,33.368874 C 88.06152,33.36888 87.581377,33.573144 87.216797,33.981667 C 86.852211,34.3902 86.66992,35.006248 86.669922,35.829811 L 86.669922,35.829811 z M 93.227539,39.413795 L 93.227539,32.255592 L 95.390625,32.255592 L 96.689453,37.138405 L 97.973633,32.255592 L 100.1416,32.255592 L 100.1416,39.413795 L 98.798828,39.413795 L 98.798828,33.77903 L 97.37793,39.413795 L 95.986328,39.413795 L 94.570312,33.77903 L 94.570312,39.413795 L 93.227539,39.413795 z M 108.04199,39.413795 L 106.46973,39.413795 L 105.84473,37.787819 L 102.9834,37.787819 L 102.39258,39.413795 L 100.85938,39.413795 L 103.64746,32.255592 L 105.17578,32.255592 L 108.04199,39.413795 z M 105.38086,36.581764 L 104.39453,33.925514 L 103.42773,36.581764 L 105.38086,36.581764 z M 108.76953,39.413795 L 108.76953,32.255592 L 110.21484,32.255592 L 110.21484,39.413795 L 108.76953,39.413795 z M 111.60156,39.413795 L 111.60156,32.255592 L 113.00781,32.255592 L 115.9375,37.035866 L 115.9375,32.255592 L 117.28027,32.255592 L 117.28027,39.413795 L 115.83008,39.413795 L 112.94434,34.745827 L 112.94434,39.413795 L 111.60156,39.413795 z"/>
  <path d="M37.5324 20.0948A16.7433 16.8725 0 0,0 4.0458 20.0948A16.7433 16.8725 0 0,0 37.5324 20.0948Z
M34.565 20.0951A13.7235 13.8144 0 0,1 7.118 20.0951A13.7235 13.8144 0 0,1 34.565 20.0951Z"/>
  <path transform="matrix(0.609377,0,0,0.6140833,0.7070665,8.79985e-2)"
    d="M20.1,40.038V24.828H27.656C31.385,24.828,33.249,26.545,33.249,29.98C33.249,30.569,33.158,31.133,32.979,31.673C32.799,32.213,32.488,32.752,32.047,33.292C31.606,33.832,30.943,34.273,30.06,34.617C29.177,34.96,28.13,35.132,26.92,35.132H23.927V40.038Z
M23.878,27.673V32.285H27.116C27.901,32.285,28.49,32.064,28.883,31.622C29.276,31.181,29.472,30.633,29.472,29.978C29.472,28.441,28.654,27.673,27.018,27.673Z
M34.28,40.038V24.828H40.168C42.588,24.828,44.485,25.45,45.859,26.693C47.233,27.936,47.92,29.85,47.92,32.433C47.92,35.017,47.233,36.931,45.859,38.174C44.485,39.417,42.588,40.038,40.168,40.038Z
M38.058,28.017V36.849H40.266C41.607,36.849,42.579,36.449,43.185,35.647C43.79,34.846,44.093,33.775,44.093,32.433C44.093,31.092,43.79,30.021,43.185,29.22C42.58,28.419,41.591,28.017,40.217,28.017Z"/>
</svg>